HIERARCHY
ROOT pelvis
{
  OFFSET 0 100 0
  CHANNELS 6 Xposition Yposition Zposition Zrotation Xrotation Yrotation
  JOINT pelvis_right_femur
  {
    OFFSET -10.78128 -3.44521 -0.5502486
    CHANNELS 3 Zrotation Xrotation Yrotation
    JOINT right_femur_tibia
    {
      OFFSET -0.8047443 -44.0398 -0.1307829
      CHANNELS 3 Zrotation Xrotation Yrotation
      JOINT right_tibia_foot
      {
        OFFSET 3.006224 -47.83518 -5
        CHANNELS 3 Zrotation Xrotation Yrotation
        End Site
        {
          OFFSET 0 -5 15
        }
      }
    }
  }
  JOINT pelvis_left_femur
  {
    OFFSET 10.78128 -3.44521 -0.5502486
    CHANNELS 3 Zrotation Xrotation Yrotation
    JOINT left_femur_tibia
    {
      OFFSET 0.8047443 -44.0398 -0.1307829
      CHANNELS 3 Zrotation Xrotation Yrotation
      JOINT left_tibia_foot
      {
        OFFSET -4.370144 -48.10324 -4.275266
        CHANNELS 3 Zrotation Xrotation Yrotation
        End Site
        {
          OFFSET 0 -5 15
        }
      }
    }
  }
  JOINT pelvis_spine1
  {
    OFFSET 0 6.468898 -3.129235
    CHANNELS 3 Zrotation Xrotation Yrotation
    JOINT spine1
    {
      OFFSET 0 23.15396 4.99043
      CHANNELS 3 Zrotation Xrotation Yrotation
      JOINT spine2
      {
        OFFSET 0 20.79997 -5.064912
        CHANNELS 3 Zrotation Xrotation Yrotation
        JOINT neck
        {
          OFFSET 0 14.38658 9.616178
          CHANNELS 3 Zrotation Xrotation Yrotation
          End Site
          {
            OFFSET 0 20 0
          }
        }
      }
      JOINT right_manubrium
      {
        OFFSET -5.722621 16.35077 3.967754
        CHANNELS 3 Zrotation Xrotation Yrotation
        JOINT right_clavicle
        {
          OFFSET -13.16364 1.694482 -4.693211
          CHANNELS 3 Zrotation Xrotation Yrotation
          JOINT right_humerus
          {
            OFFSET -28.5034 -0.3100689 -2.792744
            CHANNELS 3 Zrotation Xrotation Yrotation
            JOINT right_radius
            {
              OFFSET -25.15693 0.02248979 -1.271978
              CHANNELS 3 Zrotation Xrotation Yrotation
              End Site
              {
                OFFSET -15 0 0
              }
            }
          }
        }
      }
      JOINT left_manubrium
      {
        OFFSET 5.722621 16.35077 3.967754
        CHANNELS 3 Zrotation Xrotation Yrotation
        JOINT left_clavicle
        {
          OFFSET 13.16364 1.694482 -4.693211
          CHANNELS 3 Zrotation Xrotation Yrotation
          JOINT left_humerus
          {
            OFFSET 29.39168 -1.063119 -2.237045
            CHANNELS 3 Zrotation Xrotation Yrotation
            JOINT left_radius
            {
              OFFSET 24.59957 -0.9528479 0.9047498
              CHANNELS 3 Zrotation Xrotation Yrotation
              End Site
              {
                OFFSET 15 -0 -0
              }
            }
          }
        }
      }
    }
  }
}
MOTION
Frames: 19
Frame Time: 0.0416666666667
0 103.5113 0 1.034177 -2.076516 0.06076021 3.100361 -14.83523 7.726597 -0 38.89163 -0 -4.856987 -16.31296 -4.168039 -6.45395 14.5214 -25.89072 -0 5.690452 -0 -3.103892 -21.10981 22.6583 -2.960805 -3.182347 3.786431 1.167395 7.119721 -6.968966 0.9204239 23.24948 8.271161 4.752635 -21.49071 8.607607 7.039392 -18.36576 10.67508 85.88329 36.55987 -21.34945 -0 0 16.62306 -7.360684 8.832652 3.505961 5.475233 -18.39687 -3.076165 -101.0961 41.73218 28.89775 0 0 -21.27562 -12.00272 17.26945 28.09946
0.1626388 103.1224 1.465476 0.6783148 -1.653662 0.05966692 3.730756 -16.50459 8.280521 -0 39.15133 -0 -4.992616 -15.70847 -4.117625 -6.316126 14.24921 -26.03953 -0 6.23219 -0 -3.334466 -21.43985 22.86647 -2.567453 -2.964474 4.008669 0.9347095 7.049206 -6.849775 1.129274 22.9708 8.362861 4.991924 -21.78187 8.837378 7.152559 -18.36201 10.56178 85.84273 36.93145 -21.30834 -0 0 16.95413 -6.760869 8.965196 2.877678 5.904857 -18.6019 -2.802606 -101.484 41.73854 29.31342 0 0 -21.50645 -11.30838 17.67381 27.78216
0.3172555 102.5157 3.120846 0.1865017 -0.8544216 0.03536976 4.308149 -20.7571 7.629709 -0 35.15277 -0 -6.031833 -12.62792 -4.122462 -6.062693 13.7611 -23.86753 -0 5.801742 -0 -2.624778 -22.4107 21.72239 -2.504741 -2.252158 3.801327 1.479096 7.677754 -7.620354 0.9430962 22.38305 8.375609 5.035641 -22.87916 8.549396 6.825147 -18.58951 10.90791 86.63327 36.544 -22.1202 -0 0 15.99405 -7.764108 8.886715 3.980779 6.035435 -19.94376 -2.972442 -99.24085 40.2919 27.13154 0 0 -22.71965 -9.564345 16.82836 26.20423
0.4541597 101.7688 5.015176 -0.2977374 -0.07643462 0.04211702 5.130644 -24.5753 7.592939 -0 32.37134 -0 -6.471672 -10.02357 -3.962763 -5.773795 13.52091 -22.91828 -0 6.224875 -0 -3.325613 -23.65212 20.85773 -2.071313 -1.608916 3.899782 1.355404 7.738401 -7.729235 1.129338 21.82698 8.493134 5.418336 -23.37769 8.583132 6.75569 -18.48629 10.85441 86.91632 36.68433 -22.45421 -0 0 15.86697 -7.944696 9.245109 3.90955 6.678944 -20.73073 -2.864975 -98.51753 40.01305 26.36892 0 0 -24.04664 -8.755059 16.7137 25.87604
0.5648311 100.8389 7.268804 -0.6732616 0.7517995 0.1269251 5.796745 -28.39967 7.330888 -0 28.52327 -0 -6.817303 -7.133144 -3.776113 -5.482027 13.35661 -21.74486 -0 6.877151 -0 -4.118172 -25.01476 19.60667 -1.768662 -0.9187328 3.916053 1.315864 7.736317 -7.847691 1.329525 21.27951 8.558879 5.733694 -23.87529 8.610697 6.601892 -18.24167 10.7935 87.17211 36.68961 -22.75207 -0 0 15.55773 -8.379031 9.694269 4.04089 7.260775 -21.43719 -2.774402 -97.38581 39.48877 25.13805 0 0 -25.35155 -7.866062 16.44102 25.32833
0.6432645 99.73403 10.00177 -0.908921 1.661645 0.3505072 6.30349 -31.76781 6.915738 -0 23.95892 -0 -6.953297 -4.136417 -3.547212 -5.196297 13.22229 -20.60697 -0 8.080156 -0 -5.047038 -26.29739 18.0141 -1.592352 -0.2520472 3.849933 1.349739 7.612849 -7.914414 1.546822 20.7505 8.574567 5.978249 -24.388 8.661232 6.476091 -17.837 10.73545 87.22723 36.73509 -22.86688 -0 0 15.21822 -8.966952 10.29928 4.343747 7.698186 -21.825 -2.682614 -96.17981 38.74655 23.84447 0 0 -26.27868 -7.070547 16.06284 24.72304
0.6832249 98.46639 13.34276 -0.9844245 2.606765 0.7736954 6.451979 -34.11499 6.076139 -0 18.61378 -0 -6.873166 -1.368117 -3.365421 -4.888337 13.13429 -19.29061 -0 9.857016 -0 -5.881994 -27.07669 15.87762 -1.604552 0.2872876 3.575802 1.66025 7.423683 -8.067351 1.665926 20.32004 8.469205 5.93976 -25.0519 8.680042 6.26635 -17.32416 10.7717 87.15651 36.53027 -22.84181 -0 0 14.66061 -9.928717 10.9487 5.14025 7.708917 -21.79533 -2.671572 -94.75238 37.43998 22.39391 0 0 -26.43936 -6.280759 15.43045 23.85038
0.6797585 97.11337 17.38165 -1.031898 3.520579 1.417518 6.336903 -34.82302 4.805198 -0 13.37554 -0 -6.602437 0.605146 -3.325765 -4.461765 13.16898 -17.8061 -0 12.3434 -0 -6.695159 -26.70211 13.15406 -1.615104 0.5287023 3.039054 2.288703 7.19199 -8.372021 1.591227 20.05834 8.214399 5.493472 -25.92364 8.60773 5.940343 -16.81002 10.94813 87.06589 35.89679 -22.76153 -0 0 13.88436 -11.22991 11.53681 6.462434 7.122793 -21.26551 -2.785905 -93.44424 35.63032 21.23918 0 0 -25.56574 -5.684919 14.64373 22.98012
0.6268942 95.85626 22.13277 -1.367688 4.244381 2.200698 6.456737 -33.77335 3.438813 -0 10.01923 -0 -6.391884 1.344098 -3.498653 -3.764909 13.48601 -16.20339 -0 15.81209 -0 -7.818919 -24.46367 10.04814 -1.183544 0.3447237 2.286582 3.058673 6.984419 -8.835518 1.278341 19.99093 7.838489 4.690109 -26.87714 8.335667 5.540269 -16.42542 11.24368 87.20788 34.81761 -22.83696 -0 0 12.92493 -12.58937 11.96039 7.994385 6.017492 -20.42582 -3.033678 -92.64318 33.82383 20.86556 0 0 -23.96124 -5.524185 14.02443 22.66798
0.5280377 94.97922 27.52289 -2.238927 4.515529 2.898276 7.356963 -31.55077 2.539333 -0 10.31346 -0 -6.642231 0.978668 -3.798651 -2.775777 13.98712 -14.63739 -0 21.04707 -0 -9.573434 -20.14263 7.204012 0.0509187 -0.1555527 1.574099 3.584036 6.923006 -9.307458 0.8179961 20.06471 7.461039 3.885497 -27.5181 7.786795 5.286313 -16.19787 11.56341 87.71486 33.73179 -23.17844 -0 0 11.87855 -13.54935 12.23394 9.122518 4.787157 -19.71915 -3.366517 -92.50216 32.73304 21.39402 0 0 -22.51506 -5.854133 13.86835 23.32927
0.4256834 94.74246 33.39718 -3.330224 4.104143 3.196011 8.752464 -28.63442 2.331298 -0 13.78604 -0 -7.442841 -0.005324227 -3.958062 -1.838022 13.79766 -13.2516 -0 29.16046 -0 -11.63786 -14.5797 5.436388 1.723251 -0.5772679 1.335785 3.627618 7.126378 -9.512796 0.4012154 20.23982 7.218412 3.508868 -27.43278 7.057192 5.415251 -15.99832 11.82909 88.30233 33.29516 -23.55619 -0 0 10.8685 -13.91665 12.43103 9.480622 3.84119 -19.48142 -3.676023 -92.73832 32.42203 22.2923 0 0 -21.87728 -6.222372 13.96034 24.40936
0.3933494 95.19897 39.52738 -3.849766 3.048589 2.906969 9.557856 -24.74157 2.461849 -0 17.28038 -0 -8.298711 -1.306504 -3.711555 -1.468736 11.54899 -11.99717 -0 40.18489 -0 -13.07713 -9.411775 5.046476 2.817793 -0.5480745 1.908779 3.342043 7.617571 -9.262801 0.1613423 20.54404 7.13878 3.645924 -26.62216 6.374167 5.8739 -15.75875 12.06147 88.46565 33.7252 -23.5466 -0 0 10.05964 -14.03653 12.55416 9.347637 3.292052 -19.6622 -3.82704 -92.8492 32.11823 22.82169 0 0 -21.89075 -5.927912 13.67672 24.63974
0.4509363 96.14984 45.67291 -3.33444 1.571118 2.159988 9.082514 -19.55415 2.494881 -0 18.00331 -0 -8.603383 -2.808231 -3.09832 -1.769943 6.75912 -10.73071 -0 52.0171 -0 -13.20594 -5.926525 5.734332 2.659462 -0.07166048 3.210497 3.007543 8.302997 -8.614629 0.1112954 21.00734 7.101811 3.977595 -25.43963 5.897129 6.309293 -15.59944 12.31005 87.99129 34.56829 -22.87987 -0 0 9.579098 -14.45723 12.60232 9.281815 3.01648 -19.99722 -3.76079 -92.48628 31.15369 22.61429 0 0 -22.11572 -4.766369 12.69799 23.39555
0.536688 97.27183 51.65895 -2.046186 -0.1138101 1.268539 7.6753 -13.41754 2.408387 -0 15.87111 -0 -8.205859 -4.327534 -2.436399 -2.304293 0.3055953 -9.391658 -0 61.45803 -0 -12.13811 -4.366229 7.18594 1.472001 0.5507263 4.803593 2.722614 9.042484 -7.772022 0.2135959 21.58472 6.959553 4.15945 -24.17927 5.63801 6.417525 -15.69439 12.57056 87.00722 35.18179 -21.5119 -0 0 9.515394 -15.47846 12.65353 9.588932 2.889732 -20.27989 -3.541884 -91.7415 29.57646 21.85559 0 0 -22.26162 -3.226814 11.3093 21.20213
0.5868967 98.23933 57.39818 -0.5977736 -1.750384 0.4686165 6.127135 -7.093623 2.401507 -0 12.46568 -0 -7.354539 -5.713693 -1.99084 -2.53156 -6.565815 -7.901016 -0 65.9049 -0 -10.47942 -4.216919 9.266393 -0.02003245 1.042266 6.26132 2.425676 9.722961 -6.917375 0.4054488 22.12945 6.688108 4.100931 -22.96392 5.518269 6.145429 -16.1755 12.80453 85.69721 35.19333 -19.51851 -0 0 10.04491 -17.07118 12.75349 10.2702 2.901153 -20.45149 -3.287071 -91.0251 27.7972 21.07473 0 0 -22.15617 -1.895135 9.978156 18.94847
0.6020452 98.77354 62.88955 0.4895098 -3.037107 -0.187139 5.012357 -1.272045 2.578178 -0 9.287299 -0 -6.318594 -7.07449 -1.794695 -2.101561 -13.04859 -6.145159 -0 64.21747 -0 -8.828159 -4.753116 11.76163 -1.152002 1.300181 7.37499 2.039352 10.26832 -6.153272 0.59891 22.45095 6.383232 3.889822 -21.86495 5.458626 5.586309 -17.12274 12.97291 84.17376 34.53115 -17.01894 -0 0 11.43501 -19.00735 12.84337 11.20858 3.088831 -20.50958 -3.082417 -90.70289 26.15187 20.81879 0 0 -21.73084 -1.044526 8.905231 17.24279
0.6405654 98.68119 68.21665 0.944638 -3.770544 -0.7707859 4.524014 3.659548 2.888954 -0 7.152273 -0 -5.204289 -8.750714 -1.70234 -0.9086376 -18.7725 -4.136799 -0 56.90107 -0 -7.575362 -5.376132 14.24459 -1.575328 1.362849 8.110358 1.545268 10.61237 -5.5149 0.7254304 22.43128 6.150482 3.617777 -20.95621 5.437459 4.844375 -18.51377 13.03716 82.51329 33.31987 -14.14981 -0 0 13.85033 -21.01803 12.85388 12.2919 3.420642 -20.38495 -2.957937 -90.88044 24.81551 21.40374 0 0 -21.00537 -0.697601 8.035093 16.34376
0.7735143 97.90276 73.53047 0.7632499 -3.950444 -1.376627 4.524857 7.62495 3.20412 -0 6.284865 -0 -4.005332 -11.0151 -1.513407 0.8641025 -23.51889 -2.134888 -0 45.94868 -0 -6.862643 -5.746558 16.2355 -1.315066 1.322526 8.506801 0.993592 10.69923 -4.996361 0.7801311 22.10541 6.038795 3.324812 -20.2834 5.497888 4.019378 -20.14503 12.96215 80.80117 31.86336 -11.08869 -0 0 17.0945 -22.92722 12.82298 13.44438 3.765782 -19.94905 -2.897774 -91.3952 23.84197 22.75123 0 0 -20.00345 -0.7386049 7.297824 16.1832
1.045902 96.53752 79.01624 0.1907857 -3.763718 -2.064054 4.642013 10.78365 3.409876 -0 6.565121 -0 -2.703802 -13.69243 -1.092762 2.70617 -27.0732 -0.6138597 -0 34.30281 -0 -6.563224 -5.804897 17.46918 -0.7267229 1.235537 8.640491 0.4762562 10.52517 -4.573344 0.8202948 21.64694 6.043545 3.03882 -19.83636 5.707027 3.241831 -21.64136 12.74077 79.15073 30.59353 -8.101531 -0 0 20.51581 -24.70365 12.89735 14.60646 3.968392 -19.13717 -2.858595 -91.94704 23.19682 24.40252 0 0 -18.69501 -0.9644339 6.748445 16.39537
